<svg width="151" height="41" viewBox="0 0 151 41" fill="none" xmlns="http://www.w3.org/2000/svg">
<path d="M11.536 39.236C10.6 39.236 9.664 39.08 8.728 38.768C7.792 38.456 7.012 38.024 6.388 37.472L8.188 34.16C8.644 34.568 9.16 34.892 9.736 35.132C10.312 35.372 10.9 35.492 11.5 35.492C12.316 35.492 12.976 35.288 13.48 34.88C13.984 34.472 14.452 33.788 14.884 32.828L16 30.308L16.36 29.768L23.632 12.776H27.952L18.952 33.548C18.352 34.988 17.68 36.128 16.936 36.968C16.216 37.808 15.4 38.396 14.488 38.732C13.6 39.068 12.616 39.236 11.536 39.236ZM15.496 32.684L6.82 12.776H11.5L18.556 29.372L15.496 32.684ZM117.431 12.56C118.967 12.56 120.323 12.86 121.499 13.46C122.699 14.06 123.635 14.984 124.307 16.232C124.979 17.456 125.315 19.04 125.315 20.984V32H120.815V21.56C120.815 19.856 120.443 18.584 119.699 17.744C118.955 16.904 117.887 16.484 116.495 16.484C115.511 16.484 114.635 16.7 113.867 17.132C113.123 17.564 112.535 18.2 112.103 19.04C111.695 19.88 111.491 20.948 111.491 22.244V32H106.991V21.56C106.991 19.856 106.619 18.584 105.875 17.744C105.131 16.904 104.063 16.484 102.671 16.484C101.687 16.484 100.811 16.7 100.043 17.132C99.2988 17.564 98.7108 18.2 98.2788 19.04C97.8708 19.88 97.6668 20.948 97.6668 22.244V32H93.1668V12.776H97.4508V17.888L96.6948 16.376C97.3428 15.128 98.2788 14.18 99.5028 13.532C100.751 12.884 102.167 12.56 103.751 12.56C105.551 12.56 107.111 13.004 108.431 13.892C109.775 14.78 110.663 16.124 111.095 17.924L109.331 17.312C109.955 15.872 110.987 14.72 112.427 13.856C113.867 12.992 115.535 12.56 117.431 12.56Z" fill="#CC0000"/>
<path d="M38.9005 32.252C37.2685 32.252 35.8285 31.952 34.5805 31.352C33.3325 30.728 32.3605 29.792 31.6645 28.544C30.9685 27.272 30.6205 25.676 30.6205 23.756V12.776H35.1205V23.144C35.1205 24.872 35.5045 26.168 36.2725 27.032C37.0645 27.872 38.1805 28.292 39.6205 28.292C40.6765 28.292 41.5885 28.076 42.3565 27.644C43.1485 27.212 43.7605 26.564 44.1925 25.7C44.6485 24.836 44.8765 23.768 44.8765 22.496V12.776H49.3765V32H45.0925V26.816L45.8485 28.4C45.2005 29.648 44.2525 30.608 43.0045 31.28C41.7565 31.928 40.3885 32.252 38.9005 32.252ZM79.5324 12.56C81.0684 12.56 82.4244 12.86 83.6004 13.46C84.8004 14.06 85.7364 14.984 86.4084 16.232C87.0804 17.456 87.4164 19.04 87.4164 20.984V32H82.9164V21.56C82.9164 19.856 82.5444 18.584 81.8004 17.744C81.0564 16.904 79.9884 16.484 78.5964 16.484C77.6124 16.484 76.7364 16.7 75.9684 17.132C75.2244 17.564 74.6364 18.2 74.2044 19.04C73.7964 19.88 73.5924 20.948 73.5924 22.244V32H69.0924V21.56C69.0924 19.856 68.7204 18.584 67.9764 17.744C67.2324 16.904 66.1644 16.484 64.7724 16.484C63.7884 16.484 62.9124 16.7 62.1444 17.132C61.4004 17.564 60.8124 18.2 60.3804 19.04C59.9724 19.88 59.7684 20.948 59.7684 22.244V32H55.2684V12.776H59.5524V17.888L58.7964 16.376C59.4444 15.128 60.3804 14.18 61.6044 13.532C62.8524 12.884 64.2684 12.56 65.8524 12.56C67.6524 12.56 69.2124 13.004 70.5324 13.892C71.8764 14.78 72.7644 16.124 73.1964 17.924L71.4324 17.312C72.0564 15.872 73.0884 14.72 74.5284 13.856C75.9684 12.992 77.6364 12.56 79.5324 12.56ZM132.298 39.236C131.362 39.236 130.426 39.08 129.49 38.768C128.554 38.456 127.774 38.024 127.15 37.472L128.95 34.16C129.406 34.568 129.922 34.892 130.498 35.132C131.074 35.372 131.662 35.492 132.262 35.492C133.078 35.492 133.738 35.288 134.242 34.88C134.746 34.472 135.214 33.788 135.646 32.828L136.762 30.308L137.122 29.768L144.394 12.776H148.714L139.714 33.548C139.114 34.988 138.442 36.128 137.698 36.968C136.978 37.808 136.162 38.396 135.25 38.732C134.362 39.068 133.378 39.236 132.298 39.236ZM136.258 32.684L127.582 12.776H132.262L139.318 29.372L136.258 32.684Z" fill="#3A2D2D"/>
<path d="M16.3235 4.23529V2.17647C16.3235 0.974437 17.2979 -3.33786e-06 18.5 -3.33786e-06V-3.33786e-06C19.702 -3.33786e-06 20.6764 0.974436 20.6764 2.17647V4.23529H16.3235Z" fill="#3A2D2D"/>
<path d="M0 6.35297C14.4442 0.745897 22.5454 0.666065 37 6.35297L0 6.35297Z" fill="#3A2D2D"/>
<rect y="6.35296" width="37" height="1.05882" fill="#3A2D2D"/>
</svg>
